<svg xmlns="http://www.w3.org/2000/svg" viewBox="0 0 914.65 298.55"><defs><style>.cls-1,.cls-3{stroke:#000;stroke-width:2px;}.cls-1,.cls-2,.cls-3{stroke-miterlimit:10;}.cls-2{fill:#fff;stroke:#fff;stroke-width:3px;}.cls-3,.cls-4{fill:#231f20;}</style></defs><g id="Layer_2" data-name="Layer 2"><g id="Layer_1-2" data-name="Layer 1"><path class="cls-1" d="M135.78,182.82l-.19-99.39-49.3,82.82h-9L28,84v98.81H9.31V46.4h16l56.9,95.88L138.32,46.4h16l.19,136.42Z"/><polygon class="cls-1" points="154.45 46.4 186.53 46.4 236.28 1 343.26 1 392.88 47.02 392.88 60.88 410.76 77.46 410.76 173.72 400.95 182.82 154.58 182.82 154.45 46.4"/><path class="cls-2" d="M310.75,148.23a44.9,44.9,0,0,0,17-18.06q6.15-11.62,6.15-26.69t-6.15-26.67a44.14,44.14,0,0,0-17-17.94,50.87,50.87,0,0,0-49,0,45,45,0,0,0-17.12,17.94q-6.28,11.63-6.29,26.67t6.29,26.69a45.79,45.79,0,0,0,17.12,18.06,49.77,49.77,0,0,0,49,0Z"/><path class="cls-1" d="M494.59,183.51l-29.43-41.9q-5.45.39-8.57.39H422.88v40.82H400.39l-7-135.73h63.2q26.51,0,41.71,12.67t15.19,34.88q0,15.78-7.79,26.9t-22.22,16.17l32.35,45.8Zm-10.33-66.07q9.75-8,9.75-22.8t-9.75-22.7Q474.53,64,456,64.05H422.88v61.38H456Q474.52,125.43,484.26,117.44Z"/><path class="cls-3" d="M570.21,64.05H523.44v-17H636.27v17H589.5V183.51H570.21Z"/><path class="cls-3" d="M756.51,166.55v17h-99V47.09h96.27v17H677v41.89h68.4v16.57H677v44Z"/><path class="cls-3" d="M905.39,47.09V183.51h-16L807.57,81.78V183.51H788.08V47.09h16l81.86,101.73V47.09Z"/><path class="cls-4" d="M6.88,252.44v18.12H31v6.38H6.88v21H0V246H34v6.45Z"/><path class="cls-4" d="M127.37,295.09a24.63,24.63,0,0,1-9.18-9.54,29.38,29.38,0,0,1,0-27.17,24.77,24.77,0,0,1,9.18-9.54,26.61,26.61,0,0,1,26.21,0,24.44,24.44,0,0,1,9.14,9.51,29.68,29.68,0,0,1,0,27.24,24.35,24.35,0,0,1-9.14,9.5,26.55,26.55,0,0,1-26.21,0ZM150,289.34a18.45,18.45,0,0,0,6.68-7.16,22.58,22.58,0,0,0,0-20.42A18.45,18.45,0,0,0,150,254.6a17.83,17.83,0,0,0-9.52-2.6,18.17,18.17,0,0,0-16.33,9.76,22.5,22.5,0,0,0,0,20.42,18.17,18.17,0,0,0,16.33,9.76A17.83,17.83,0,0,0,150,289.34Z"/><path class="cls-4" d="M261.07,252.44h-16.5V246h39.82v6.45H267.88V298h-6.81Z"/><path class="cls-4" d="M375.45,295.09a24.49,24.49,0,0,1-9.18-9.54,29.3,29.3,0,0,1,0-27.17,24.63,24.63,0,0,1,9.18-9.54,26.6,26.6,0,0,1,26.2,0,24.4,24.4,0,0,1,9.15,9.51,29.76,29.76,0,0,1,0,27.24,24.31,24.31,0,0,1-9.15,9.5,26.53,26.53,0,0,1-26.2,0Zm22.66-5.75a18.43,18.43,0,0,0,6.67-7.16,22.58,22.58,0,0,0,0-20.42,18.43,18.43,0,0,0-6.67-7.16,17.84,17.84,0,0,0-9.53-2.6,18.17,18.17,0,0,0-16.33,9.76,22.58,22.58,0,0,0,0,20.42,18.17,18.17,0,0,0,16.33,9.76A17.84,17.84,0,0,0,398.11,289.34Z"/><path class="cls-4" d="M533.63,271.67h6.61v20.27a25.16,25.16,0,0,1-8.33,4.9,29,29,0,0,1-9.9,1.71,25.29,25.29,0,0,1-13.14-3.46,24.66,24.66,0,0,1-9.18-9.5,29.6,29.6,0,0,1,0-27.28,24.21,24.21,0,0,1,9.22-9.5,25.84,25.84,0,0,1,13.24-3.42,26.14,26.14,0,0,1,10.49,2,21.48,21.48,0,0,1,8,6l-4.27,4.6a18.63,18.63,0,0,0-14-6,19.11,19.11,0,0,0-9.87,2.56,18.06,18.06,0,0,0-6.84,7.13,22.4,22.4,0,0,0,0,20.49,18.34,18.34,0,0,0,6.84,7.16,18.82,18.82,0,0,0,9.8,2.6,19.27,19.27,0,0,0,11.28-3.34Z"/><path class="cls-4" d="M661.21,298l-10.38-16q-1.94.15-3,.15H635.9V298H629V246H647.8q9.36,0,14.72,4.82t5.36,13.29a18.4,18.4,0,0,1-2.75,10.24,15.66,15.66,0,0,1-7.84,6.17L668.71,298Zm-3.64-25.16q3.43-3,3.43-8.69t-3.43-8.65q-3.45-3-10-3H635.9v23.39h11.69Q654.13,275.83,657.57,272.79Z"/><path class="cls-4" d="M785.35,285H759.77l-5.3,13h-7.08l21.8-52H776l21.87,52h-7.22ZM782.94,279l-10.38-25.46L762.17,279Z"/><path class="cls-4" d="M887.55,252.44v18.12h24.14v6.38H887.55v21h-6.88V246h34v6.45Z"/><line class="cls-4" x1="28.01" y1="222.5" x2="894.14" y2="222.5"/><rect x="28.01" y="220" width="866.13" height="5"/></g></g></svg>