<svg xmlns="http://www.w3.org/2000/svg" viewBox="0 0 1000 317.48"><defs><style>.cls-1,.cls-4,.cls-7{fill:#231f20;}.cls-1,.cls-2,.cls-7{stroke:#000;}.cls-1,.cls-2,.cls-3,.cls-7{stroke-miterlimit:10;}.cls-1,.cls-2{stroke-width:2px;}.cls-3{fill:#fff;stroke:#fff;stroke-width:3px;}.cls-4{font-size:74.24px;font-family:Montserrat-Medium, Montserrat;font-weight:500;letter-spacing:1.09em;}.cls-5{letter-spacing:1.09em;}.cls-6{letter-spacing:1.1em;}.cls-7{stroke-width:5px;}</style></defs><g id="Layer_2" data-name="Layer 2"><g id="Layer_1-2" data-name="Layer 1"><path class="cls-1" d="M143,182.82l-.2-99.39-49.3,82.82h-9L35.24,84v98.81H16.53V46.4h16l56.91,95.88L145.54,46.4h16l.2,136.42Z"/><polygon class="cls-2" points="161.67 46.4 193.75 46.4 243.5 1 350.49 1 400.1 47.02 400.1 60.88 417.99 77.46 417.99 173.72 408.17 182.82 161.8 182.82 161.67 46.4"/><path class="cls-3" d="M318,148.23a44.94,44.94,0,0,0,17-18.06q6.15-11.62,6.15-26.69T335,76.81a44.18,44.18,0,0,0-17-17.94,50.89,50.89,0,0,0-49,0,45,45,0,0,0-17.12,17.94q-6.28,11.63-6.29,26.67t6.29,26.69A45.79,45.79,0,0,0,269,148.23a49.79,49.79,0,0,0,49,0Z"/><path class="cls-2" d="M501.82,183.51l-29.43-41.9q-5.46.39-8.58.39H430.1v40.82H407.61l-7-135.73h63.2q26.51,0,41.71,12.67t15.2,34.88q0,15.78-7.8,26.9t-22.21,16.17l32.34,45.8Zm-10.34-66.07q9.75-8,9.75-22.8t-9.75-22.7q-9.74-7.91-28.25-7.89H430.1v61.38h33.13Q481.74,125.43,491.48,117.44Z"/><path class="cls-1" d="M577.43,64.05H530.66v-17H643.49v17H596.72V183.51H577.43Z"/><path class="cls-1" d="M763.73,166.55v17h-99V47.09H761v17H684.22v41.89h68.4v16.57h-68.4v44Z"/><path class="cls-1" d="M912.62,47.09V183.51h-16L814.79,81.78V183.51H795.3V47.09h16l81.85,101.73V47.09Z"/><text class="cls-4" transform="translate(0 297.95) scale(0.93 1)">F<tspan class="cls-5" x="128.21" y="0">OT</tspan><tspan class="cls-6" x="395.99" y="0">OGRAF</tspan></text><line class="cls-7" x1="35.24" y1="222.5" x2="901.36" y2="222.5"/></g></g></svg>