<svg xmlns="http://www.w3.org/2000/svg" viewBox="0 0 500 142.37"><defs><style>.cls-1{fill:#231f20;}.cls-2{fill:#fff;stroke:#fff;stroke-miterlimit:10;stroke-width:3px;}</style></defs><g id="Layer_2" data-name="Layer 2"><g id="Layer_1-2" data-name="Layer 1"><path class="cls-1" d="M74.22,104.46l-.1-54.33L47.17,95.41h-4.9l-26.95-45v54H5.09V29.89h8.73L44.93,82.3,75.61,29.89h8.74l.1,74.57Z"/><path d="M89.53,109.54H69.16l-.08-41-19,32H39.39l-19-31.7v40.76H0V24.82h16.7L44.9,72.31,72.7,24.82H89.41ZM79.29,99.39h.08L79.16,35Zm-69.13,0h.08L10.16,35Z"/><polygon points="85.22 29.89 102.75 29.89 129.16 5.07 187.64 5.07 214.76 30.23 214.76 37.81 224.54 46.87 224.54 99.49 219.18 104.46 84.5 104.46 85.22 29.89"/><path d="M221.17,109.54H79.43l-.08-84.72H100L127.19,0h62.44l30.21,28v7.58l9.77,9.06V101.7ZM89.57,99.39H217.19l2.28-2.11V49.08L209.69,40V32.44l-24-22.29H131.13L103.93,35H89.51Z"/><path class="cls-2" d="M169.87,85.55a24.45,24.45,0,0,0,9.29-9.87,30.73,30.73,0,0,0,3.36-14.59,30.74,30.74,0,0,0-3.36-14.58,24.2,24.2,0,0,0-9.29-9.8,27.76,27.76,0,0,0-26.77,0,24.63,24.63,0,0,0-9.36,9.8,30.2,30.2,0,0,0-3.44,14.58,30.18,30.18,0,0,0,3.44,14.59,24.89,24.89,0,0,0,9.36,9.87,27.21,27.21,0,0,0,26.77,0Z"/><path class="cls-1" d="M270.37,104.84l-16.09-22.9c-2,.14-3.55.21-4.69.21H231.16v22.69H220.51V30.27h29.08q14.49,0,22.8,6.92t8.31,19.07A25,25,0,0,1,276.44,71a24.13,24.13,0,0,1-12.15,8.84l17.69,25Zm-5.65-36.11q5.32-4.38,5.33-12.47t-5.33-12.41q-5.33-4.32-15.45-4.31H231.16V73.1h18.11Q259.4,73.1,264.72,68.73Z"/><path d="M291.77,109.91h-24l-16-22.74c-.83,0-1.55,0-2.16,0H236.24v22.69h-20.8V25.2h34.15c10.83,0,19.6,2.72,26,8.1,6.72,5.6,10.13,13.33,10.13,23a30,30,0,0,1-5.18,17.62,27.71,27.71,0,0,1-8.65,8ZM225.58,99.77h.51V35.34h-.51Zm44.31-58c3.47,3.71,5.23,8.58,5.23,14.51S273.4,67,270,70.68a17.87,17.87,0,0,0,2.27-2.63,19.89,19.89,0,0,0,3.33-11.79C275.62,50.08,273.75,45.32,269.89,41.75ZM236.24,68h13c5.51,0,9.63-1.08,12.23-3.22,2.37-1.94,3.47-4.65,3.47-8.54,0-5.09-2-7.27-3.44-8.46-2.61-2.12-6.73-3.19-12.26-3.19h-13Z"/><path class="cls-1" d="M311.7,39.54H286.13V30.27h61.68v9.27H322.25v65.3H311.7Z"/><path d="M327.32,109.91H306.63V44.61H281.06V25.2h71.83V44.61H327.32ZM316.77,99.77h.4V35.34h-.4Z"/><path class="cls-1" d="M413.54,95.57v9.27H359.42V30.27h52.63v9.27h-42v22.9h37.39V71.5H370.08V95.57Z"/><path d="M418.61,109.91H354.35V25.2h62.77V44.61h-42V57.37h37.39v19.2H375.15V90.5h43.46ZM364.5,99.77h.5V35.34h-.5Z"/><path class="cls-1" d="M494.93,30.27v74.57h-8.74L441.45,49.23v55.61H430.8V30.27h8.73l44.74,55.61V30.27Z"/><path d="M500,109.91H483.76L446.52,63.63v46.28h-20.8V25.2H442L479.2,71.48V25.2H500ZM489.35,99.77h.5V35.34h-.5Zm-.73,0h.32L436.78,35.34Zm-52.75,0h.51V35.34h-.51Z"/><path class="cls-1" d="M3.76,117.16v9.9H17v3.5H3.76V142H0V113.63H18.57v3.53Z"/><path class="cls-1" d="M69.63,140.48a13.41,13.41,0,0,1-5-5.22,16.06,16.06,0,0,1,0-14.85,13.41,13.41,0,0,1,5-5.22,14.57,14.57,0,0,1,14.32,0,13.37,13.37,0,0,1,5,5.2,16.22,16.22,0,0,1,0,14.89,13.3,13.3,0,0,1-5,5.2,14.51,14.51,0,0,1-14.32,0ZM82,137.33a9.94,9.94,0,0,0,3.65-3.92,12.29,12.29,0,0,0,0-11.16A10,10,0,0,0,82,118.34a9.69,9.69,0,0,0-5.2-1.42,9.94,9.94,0,0,0-5.25,1.42,10,10,0,0,0-3.68,3.91,12.29,12.29,0,0,0,0,11.16,9.91,9.91,0,0,0,8.93,5.34A9.69,9.69,0,0,0,82,137.33Z"/><path class="cls-1" d="M142.71,117.16h-9v-3.53h21.77v3.53h-9V142h-3.73Z"/><path class="cls-1" d="M205.24,140.48a13.41,13.41,0,0,1-5-5.22,16,16,0,0,1,0-14.85,13.41,13.41,0,0,1,5-5.22,14.57,14.57,0,0,1,14.32,0,13.37,13.37,0,0,1,5,5.2,16.3,16.3,0,0,1,0,14.89,13.3,13.3,0,0,1-5,5.2,14.51,14.51,0,0,1-14.32,0Zm12.38-3.15a9.94,9.94,0,0,0,3.65-3.92,12.37,12.37,0,0,0,0-11.16,10,10,0,0,0-3.65-3.91,9.69,9.69,0,0,0-5.2-1.42,9.94,9.94,0,0,0-5.25,1.42,10,10,0,0,0-3.68,3.91,12.29,12.29,0,0,0,0,11.16,9.91,9.91,0,0,0,8.93,5.34A9.69,9.69,0,0,0,217.62,137.33Z"/><path class="cls-1" d="M291.71,127.67h3.61v11.08a13.83,13.83,0,0,1-4.55,2.68,16,16,0,0,1-5.42.94,13.85,13.85,0,0,1-7.18-1.89,13.49,13.49,0,0,1-5-5.2,16.18,16.18,0,0,1,0-14.91,13.34,13.34,0,0,1,5-5.2,15.16,15.16,0,0,1,13-.75,11.69,11.69,0,0,1,4.38,3.27l-2.33,2.52a10.16,10.16,0,0,0-7.63-3.29,10.43,10.43,0,0,0-5.4,1.4,9.93,9.93,0,0,0-3.74,3.89,11.66,11.66,0,0,0-1.35,5.63,11.5,11.5,0,0,0,1.35,5.57,10,10,0,0,0,3.74,3.92,10.28,10.28,0,0,0,5.36,1.42,10.54,10.54,0,0,0,6.17-1.82Z"/><path class="cls-1" d="M361.45,142l-5.68-8.72c-.7.05-1.25.07-1.66.07h-6.5V142h-3.76V113.63h10.26c3.41,0,6.1.88,8.05,2.64a9.25,9.25,0,0,1,2.93,7.26,10,10,0,0,1-1.5,5.6,8.54,8.54,0,0,1-4.29,3.37l6.25,9.54Zm-2-13.76a6,6,0,0,0,1.88-4.75,5.91,5.91,0,0,0-1.88-4.72,8,8,0,0,0-5.45-1.65h-6.39V130H354A8,8,0,0,0,359.45,128.28Z"/><path class="cls-1" d="M429.3,134.94h-14l-2.9,7.1h-3.87l11.92-28.41h3.72l12,28.41H432.2ZM428,131.69l-5.68-13.92-5.67,13.92Z"/><path class="cls-1" d="M485.18,117.16v9.9h13.19v3.5H485.18V142h-3.76V113.63H500v3.53Z"/></g></g></svg>