<svg xmlns="http://www.w3.org/2000/svg" viewBox="0 0 107.76 35.1"><defs><style>.cls-1,.cls-4,.cls-7{fill:#231f20;}.cls-1,.cls-2,.cls-7{stroke:#000;}.cls-1,.cls-2,.cls-3,.cls-7{stroke-miterlimit:10;}.cls-1,.cls-2{stroke-width:2px;}.cls-3{fill:#fff;stroke:#fff;stroke-width:3px;}.cls-4{font-size:8px;font-family:Montserrat-Medium, Montserrat;font-weight:500;letter-spacing:1.09em;}.cls-5{letter-spacing:1.09em;}.cls-6{letter-spacing:1.1em;}</style></defs><g id="Layer_2" data-name="Layer 2"><g id="Layer_1-2" data-name="Layer 1"><path class="cls-1" d="M15.41,20.59l0-10.71-5.31,8.93h-1L3.8,10V20.59h-2V5.89H3.5L9.64,16.22l6-10.33h1.73l0,14.7Z"/><polygon class="cls-2" points="17.42 5.89 20.88 5.89 26.24 1 37.77 1 43.12 5.96 43.12 7.45 45.04 9.24 45.04 19.61 43.98 20.59 17.44 20.59 17.42 5.89"/><path class="cls-3" d="M34.26,16.87a4.94,4.94,0,0,0,1.84-2A6.09,6.09,0,0,0,36.76,12a6,6,0,0,0-.66-2.87,4.76,4.76,0,0,0-1.84-1.93,5.13,5.13,0,0,0-2.63-.68A5.19,5.19,0,0,0,29,7.24a4.78,4.78,0,0,0-1.85,1.93A5.94,5.94,0,0,0,26.46,12a6,6,0,0,0,.68,2.88,5,5,0,0,0,1.85,2,5.1,5.1,0,0,0,2.64.69A5,5,0,0,0,34.26,16.87Z"/><path class="cls-1" d="M54.08,20.67,50.9,16.15c-.39,0-.7,0-.92,0H46.35v4.48h-2.1V6H50a6.8,6.8,0,0,1,4.49,1.36,4.6,4.6,0,0,1,1.64,3.76,4.94,4.94,0,0,1-.84,2.9,4.72,4.72,0,0,1-2.39,1.74l3.48,4.94ZM53,13.55a3,3,0,0,0,1-2.46,3,3,0,0,0-1-2.45,4.77,4.77,0,0,0-3-.85H46.35v6.62h3.57A4.71,4.71,0,0,0,53,13.55Z"/><path class="cls-1" d="M62.22,7.79h-5V6H69.34V7.79h-5V20.67H62.22Z"/><path class="cls-1" d="M82.3,18.84v1.83H71.63V6H82V7.79H73.73v4.52H81.1v1.78H73.73v4.75Z"/><path class="cls-1" d="M98.34,6v14.7H96.62L87.8,9.7v11H85.7V6h1.72l8.82,11V6Z"/><text class="cls-4" transform="translate(0 33) scale(0.93 1)">F<tspan class="cls-5" x="13.82" y="0">OT</tspan><tspan class="cls-6" x="42.67" y="0">OGRAF</tspan></text><line class="cls-7" x1="3.8" y1="24.87" x2="97.13" y2="24.87"/></g></g></svg>