<svg xmlns="http://www.w3.org/2000/svg" width="128" height="63" viewBox="0 0 128 63">
  <defs>
    <style>
      .cls-1 {
        fill: none;
      }

      .cls-2 {
        fill: #1b203d;
      }
    </style>
  </defs>
  <g id="Group_40" data-name="Group 40" transform="translate(0 3421)">
    <rect id="Rectangle_284" data-name="Rectangle 284" class="cls-1" width="128" height="63" transform="translate(0 -3421)"/>
    <g id="tic-tac-toe" transform="translate(0 -3421)">
      <path id="Path_6" data-name="Path 6" class="cls-2" d="M40,32a8,8,0,1,0,8,8A8.024,8.024,0,0,0,40,32Zm0,14a6,6,0,1,1,6-6A6.018,6.018,0,0,1,40,46Z" transform="translate(-0.6 -0.5)"/>
      <path id="Path_7" data-name="Path 7" class="cls-2" d="M13.9,32.6,8,38.6l-5.9-6L.6,34.1l6,5.9-6,5.9,1.5,1.5,5.9-6,5.9,6,1.5-1.5L9.4,40l6-5.9Z" transform="translate(-0.6 -0.5)"/>
      <path id="Path_8" data-name="Path 8" class="cls-2" d="M15.4,15.4H.7V.5H15.4Zm-12.9-2h11V2.5H2.5Z" transform="translate(-0.6 -0.5)"/>
      <path id="Path_9" data-name="Path 9" class="cls-2" d="M48,15.4H32L40,.6Zm-12.5-2h9.1L40,5.4Z" transform="translate(-0.6 -0.5)"/>
    </g>
    <g id="tic-tac-toe-2" data-name="tic-tac-toe" transform="translate(64 -3421)">
      <path id="Path_6-2" data-name="Path 6" class="cls-2" d="M40,32a8,8,0,1,0,8,8A8.024,8.024,0,0,0,40,32Zm0,14a6,6,0,1,1,6-6A6.018,6.018,0,0,1,40,46Z" transform="translate(-0.6 -0.5)"/>
      <path id="Path_7-2" data-name="Path 7" class="cls-2" d="M13.9,32.6,8,38.6l-5.9-6L.6,34.1l6,5.9-6,5.9,1.5,1.5,5.9-6,5.9,6,1.5-1.5L9.4,40l6-5.9Z" transform="translate(-0.6 -0.5)"/>
      <path id="Path_8-2" data-name="Path 8" class="cls-2" d="M15.4,15.4H.7V.5H15.4Zm-12.9-2h11V2.5H2.5Z" transform="translate(-0.6 -0.5)"/>
      <path id="Path_9-2" data-name="Path 9" class="cls-2" d="M48,15.4H32L40,.6Zm-12.5-2h9.1L40,5.4Z" transform="translate(-0.6 -0.5)"/>
    </g>
  </g>
</svg>
